<?xml version="1.0" encoding="UTF-8"?>
<svg width="154px" height="154px" viewBox="0 0 154 154" version="1.1" xmlns="http://www.w3.org/2000/svg" xmlns:xlink="http://www.w3.org/1999/xlink">
    <title>画板备份 4</title>
    <g id="画板备份-4" stroke="none" stroke-width="1" fill="none" fill-rule="evenodd">
        <path d="M77,7 C96.3299662,7 113.829966,14.8350169 126.497475,27.5025253 C139.164983,40.1700338 147,57.6700338 147,77 C147,96.3299662 139.164983,113.829966 126.497475,126.497475 C113.829966,139.164983 96.3299662,147 77,147 C63.5987688,147 51.076201,143.236148 40.4348803,136.703624 C38.5587797,135.551919 36.0492805,134.799519 32.4750042,136.401154 C31.4097835,136.878479 30.04477,137.753565 28.4596559,138.85741 C26.6301178,140.131468 24.2375679,141.977078 21.2645099,142.622149 C18.6461795,143.190255 15.4300373,142.576658 12.843278,141.740271 C13.356063,141.182218 13.8942397,140.609476 14.4318584,140.028763 L14.4318584,140.028763 L14.9539879,139.465236 C17.5797414,136.632011 20.1580525,133.737729 21.5741919,131.392681 C22.5924395,129.70652 23.1574311,128.127615 23.3750348,126.788385 C23.8208071,124.044906 23.1397245,121.776161 21.6894633,119.909748 C12.481106,108.05906 7,93.1693906 7,77 C7,57.6700338 14.8350169,40.1700338 27.5025253,27.5025253 C40.1700338,14.8350169 57.6700338,7 77,7 Z" id="椭圆形" stroke="#3B5E7D" stroke-width="14"></path>
        <path d="M27,77 C27,81.2871872 29.2871869,85.2487115 33,87.3923051 C36.7128129,89.5358988 41.2871871,89.5358988 45,87.3923051 C48.7128131,85.2487115 51,81.2871872 51,77 C51,70.372583 45.627417,65 39,65 C32.372583,65 27,70.372583 27,77 L27,77 Z" id="路径" fill="#3B5E7D" fill-rule="nonzero"></path>
        <path d="M65,77 C65,83.627417 70.372583,89 77,89 C83.627417,89 89,83.627417 89,77 C89,70.372583 83.627417,65 77,65 C70.372583,65 65,70.372583 65,77 Z" id="路径" fill="#3B5E7D" fill-rule="nonzero"></path>
        <path d="M103,77 C103,83.627417 108.372583,89 115,89 C121.627417,89 127,83.627417 127,77 C127,70.372583 121.627417,65 115,65 C108.372583,65 103,70.372583 103,77 Z" id="路径" fill="#3B5E7D" fill-rule="nonzero"></path>
    </g>
</svg>